<svg width="18" height="18" viewBox="0 0 18 18" fill="none" xmlns="http://www.w3.org/2000/svg">
<mask id="mask0_106_444" style="mask-type:luminance" maskUnits="userSpaceOnUse" x="0" y="0" width="18" height="18">
<path d="M0 0H18V18H0V0Z" fill="white"/>
</mask>
<g mask="url(#mask0_106_444)">
<mask id="mask1_106_444" style="mask-type:luminance" maskUnits="userSpaceOnUse" x="0" y="0" width="18" height="18">
<path d="M9.00078 18.0016C4.03759 18.0016 0 13.964 0 9.00078C0 4.03759 4.03759 0 9.00078 0C13.964 0 18.0016 4.03759 18.0016 9.00078C18.0016 13.964 13.964 18.0016 9.00078 18.0016ZM9.00078 0.398872C4.25773 0.399132 0.399132 4.25773 0.399132 9.00078C0.399132 13.7438 4.2579 17.6024 9.00078 17.6024C13.7437 17.6024 17.6024 13.7437 17.6024 9.00078C17.6024 4.2579 13.7438 0.399132 9.00078 0.399132V0.398872ZM9.0066 11.684C8.95608 11.684 8.90582 11.665 8.8671 11.6272L6.14392 8.96328C6.08264 8.90338 6.06649 8.8112 6.10365 8.73437L6.28863 8.34922C6.3217 8.27995 6.39175 8.23611 6.4684 8.23611H11.5425C11.6198 8.23611 11.69 8.28082 11.7229 8.35043L11.9036 8.73299C11.9398 8.80981 11.9235 8.90121 11.8628 8.96068L9.14644 11.6269C9.10773 11.6648 9.05729 11.684 9.00677 11.684H9.0066ZM6.52509 8.77804L9.00634 11.2051L11.4819 8.77509L11.4158 8.63516H6.59375L6.52509 8.77804ZM7.41606 16.157C7.4013 16.157 7.38681 16.1555 7.37196 16.1523C4.70634 15.5478 2.55391 13.4437 1.88837 10.7918C1.87344 10.7321 1.88681 10.6691 1.92474 10.6206C1.96259 10.572 2.02049 10.5437 2.08194 10.5437C2.2316 10.5437 2.35339 10.422 2.35339 10.2723V10.1346C2.35339 10.0243 2.44253 9.93507 2.55295 9.93507H4.11328C4.88654 9.59462 5.81884 9.76311 6.43246 10.3634L7.70642 11.6098C8.31111 12.2013 8.51224 13.0895 8.22431 13.8827V15.449C8.22431 15.5594 8.13507 15.6486 8.02474 15.6486H7.88707C7.73741 15.6486 7.61562 15.7703 7.61562 15.92V15.9579C7.61562 16.0186 7.58793 16.076 7.54062 16.1138C7.50495 16.1423 7.46102 16.1575 7.41606 16.1575V16.157ZM2.32943 10.8956C2.99497 13.2384 4.8941 15.097 7.24948 15.7116C7.33108 15.4622 7.55521 15.2766 7.82543 15.2516V13.8462C7.82543 13.8219 7.82977 13.7977 7.83854 13.775C8.0888 13.1218 7.92734 12.3837 7.42752 11.8947L6.15347 10.6484C5.64983 10.1554 4.88056 10.0214 4.23993 10.3153C4.2138 10.3273 4.18385 10.334 4.15512 10.334H2.74965C2.72613 10.5897 2.55851 10.8042 2.32917 10.8956H2.32943ZM10.5852 16.157C10.5404 16.157 10.4964 16.1419 10.4608 16.1134C10.4135 16.0757 10.3857 16.018 10.3857 15.9576V15.9196C10.3857 15.77 10.264 15.6482 10.1143 15.6482H9.97665C9.86623 15.6482 9.77708 15.559 9.77708 15.4486V13.8813C9.49592 13.0859 9.69826 12.2055 10.2949 11.6198L11.5699 10.3675C12.1795 9.76866 13.1058 9.59766 13.8885 9.9349H15.4484C15.5588 9.9349 15.648 10.0241 15.648 10.1345V10.2721C15.648 10.4218 15.7697 10.5436 15.9194 10.5436C15.9809 10.5436 16.039 10.5719 16.0766 10.6204C16.1144 10.6688 16.128 10.7321 16.1129 10.7916C15.4475 13.4435 13.2952 15.5477 10.6293 16.1521C10.6148 16.1555 10.6 16.1569 10.5852 16.1569V16.157ZM10.176 15.2516C10.4462 15.2766 10.6703 15.4622 10.7519 15.7116C13.1075 15.097 15.0064 13.2384 15.672 10.8956C15.4426 10.8042 15.275 10.5897 15.2515 10.334H13.846C13.8173 10.334 13.7891 10.3279 13.7632 10.3159C13.1218 10.0229 12.3523 10.1584 11.8495 10.6525L10.5743 11.9047C10.0818 12.3883 9.91892 13.1187 10.1594 13.7654C10.1676 13.7875 10.176 13.8225 10.176 13.8462V15.2516ZM15.4483 8.38238H12.7463C12.669 8.38238 12.5988 8.33767 12.5659 8.26797C12.3284 7.76415 11.8148 7.43845 11.2577 7.43845H6.74957C6.19679 7.43845 5.68498 7.7605 5.44566 8.25885C5.41259 8.32804 5.33776 8.38238 5.26085 8.38238H2.55312C2.44279 8.38238 2.35356 8.29314 2.35356 8.18281V8.04514C2.35356 7.8954 2.23186 7.7737 2.08212 7.7737H2.01033C1.95043 7.7737 1.89375 7.74679 1.85582 7.70043C1.81814 7.65417 1.80278 7.59332 1.81476 7.53446C2.50443 4.13498 5.52674 1.66745 9.00095 1.66745C12.4753 1.66745 15.4976 4.13498 16.1872 7.53446C16.1992 7.59332 16.1839 7.65417 16.1461 7.70043C16.1082 7.74679 16.0513 7.7737 15.9917 7.7737H15.9198C15.7701 7.7737 15.6484 7.8954 15.6484 8.04514V8.18281C15.6484 8.29314 15.5592 8.38238 15.4489 8.38238H15.4483ZM12.8678 7.98325H15.2513C15.2774 7.70009 15.4799 7.46736 15.7477 7.3967C15.0136 4.29488 12.2113 2.06641 9.00035 2.06641C5.7895 2.06641 2.98715 4.29488 2.25295 7.3967C2.52075 7.46736 2.72335 7.70026 2.74948 7.98325H5.13993C5.46979 7.40217 6.08646 7.03932 6.74922 7.03932H11.2574C11.9251 7.03932 12.5435 7.4059 12.8674 7.98325H12.8678ZM16.5807 10.0163C16.1309 10.0163 15.7649 9.65035 15.7649 9.20052C15.7649 8.75069 16.1309 8.38472 16.5807 8.38472C17.0306 8.38472 17.3965 8.75069 17.3965 9.20052C17.3965 9.65035 17.0306 10.0163 16.5807 10.0163ZM16.5807 8.78385C16.351 8.78385 16.1641 8.97083 16.1641 9.20052C16.1641 9.43021 16.351 9.61719 16.5807 9.61719C16.8104 9.61719 16.9974 9.43021 16.9974 9.20052C16.9974 8.97083 16.8104 8.78385 16.5807 8.78385ZM1.42066 10.0161C0.970833 10.0161 0.604861 9.65017 0.604861 9.20035C0.604861 8.75052 0.970833 8.38455 1.42066 8.38455C1.8704 8.38455 2.23637 8.75052 2.23637 9.20035C2.23637 9.65017 1.8704 10.0161 1.42066 10.0161ZM1.42066 8.78368C1.19097 8.78368 1.00399 8.97066 1.00399 9.20035C1.00399 9.43003 1.19097 9.61701 1.42066 9.61701C1.65035 9.61701 1.83733 9.43003 1.83733 9.20035C1.83733 8.97066 1.65035 8.78368 1.42066 8.78368ZM9.00078 17.3891C8.55095 17.3891 8.18498 17.0232 8.18498 16.5733C8.18498 16.1235 8.55095 15.7577 9.00078 15.7577C9.45061 15.7577 9.81658 16.1235 9.81658 16.5733C9.81658 17.0232 9.45061 17.3891 9.00078 17.3891ZM9.00078 16.1569C8.77109 16.1569 8.58411 16.3438 8.58411 16.5733C8.58411 16.8029 8.77109 16.99 9.00078 16.99C9.23047 16.99 9.41745 16.803 9.41745 16.5733C9.41745 16.3437 9.23047 16.1569 9.00078 16.1569Z" fill="white"/>
</mask>
<g mask="url(#mask1_106_444)">
<path d="M0 -0.0078125V17.9922H18V-0.0078125H0Z" fill="url(#paint0_linear_106_444)"/>
</g>
</g>
<defs>
<linearGradient id="paint0_linear_106_444" x1="9" y1="17.9922" x2="9" y2="-0.00781357" gradientUnits="userSpaceOnUse">
<stop stop-color="#3470FF"/>
<stop offset="0.00390625" stop-color="#3470FF"/>
<stop offset="0.0078125" stop-color="#3471FE"/>
<stop offset="0.0117188" stop-color="#3472FE"/>
<stop offset="0.015625" stop-color="#3472FD"/>
<stop offset="0.0195312" stop-color="#3473FD"/>
<stop offset="0.0234375" stop-color="#3473FD"/>
<stop offset="0.0273438" stop-color="#3474FC"/>
<stop offset="0.03125" stop-color="#3474FC"/>
<stop offset="0.0351562" stop-color="#3475FB"/>
<stop offset="0.0390625" stop-color="#3475FB"/>
<stop offset="0.0429688" stop-color="#3476FB"/>
<stop offset="0.046875" stop-color="#3476FA"/>
<stop offset="0.0507813" stop-color="#3477FA"/>
<stop offset="0.0546875" stop-color="#3377F9"/>
<stop offset="0.0585938" stop-color="#3378F9"/>
<stop offset="0.0625" stop-color="#3378F9"/>
<stop offset="0.0664063" stop-color="#3379F8"/>
<stop offset="0.0703125" stop-color="#3379F8"/>
<stop offset="0.0742188" stop-color="#337AF7"/>
<stop offset="0.078125" stop-color="#337AF7"/>
<stop offset="0.0820313" stop-color="#337BF7"/>
<stop offset="0.0859375" stop-color="#337BF6"/>
<stop offset="0.0898438" stop-color="#337CF6"/>
<stop offset="0.09375" stop-color="#337CF5"/>
<stop offset="0.0976563" stop-color="#337DF5"/>
<stop offset="0.101563" stop-color="#337DF5"/>
<stop offset="0.105469" stop-color="#337EF4"/>
<stop offset="0.109375" stop-color="#337FF4"/>
<stop offset="0.113281" stop-color="#337FF3"/>
<stop offset="0.117188" stop-color="#3380F3"/>
<stop offset="0.121094" stop-color="#3380F3"/>
<stop offset="0.125" stop-color="#3381F2"/>
<stop offset="0.128906" stop-color="#3381F2"/>
<stop offset="0.132812" stop-color="#3382F1"/>
<stop offset="0.136719" stop-color="#3382F1"/>
<stop offset="0.140625" stop-color="#3383F1"/>
<stop offset="0.144531" stop-color="#3383F0"/>
<stop offset="0.148437" stop-color="#3384F0"/>
<stop offset="0.152344" stop-color="#3384EF"/>
<stop offset="0.15625" stop-color="#3285EF"/>
<stop offset="0.160156" stop-color="#3285EE"/>
<stop offset="0.164062" stop-color="#3286EE"/>
<stop offset="0.167969" stop-color="#3286EE"/>
<stop offset="0.171875" stop-color="#3287ED"/>
<stop offset="0.175781" stop-color="#3287ED"/>
<stop offset="0.179687" stop-color="#3288EC"/>
<stop offset="0.183594" stop-color="#3288EC"/>
<stop offset="0.1875" stop-color="#3289EC"/>
<stop offset="0.191406" stop-color="#3289EB"/>
<stop offset="0.195313" stop-color="#328AEB"/>
<stop offset="0.199219" stop-color="#328AEA"/>
<stop offset="0.203125" stop-color="#328BEA"/>
<stop offset="0.207031" stop-color="#328CEA"/>
<stop offset="0.210938" stop-color="#328CE9"/>
<stop offset="0.214844" stop-color="#328DE9"/>
<stop offset="0.21875" stop-color="#328DE8"/>
<stop offset="0.222656" stop-color="#328EE8"/>
<stop offset="0.226562" stop-color="#328EE8"/>
<stop offset="0.230469" stop-color="#328FE7"/>
<stop offset="0.234375" stop-color="#328FE7"/>
<stop offset="0.238281" stop-color="#3290E6"/>
<stop offset="0.242188" stop-color="#3290E6"/>
<stop offset="0.246094" stop-color="#3291E6"/>
<stop offset="0.25" stop-color="#3291E5"/>
<stop offset="0.253906" stop-color="#3192E5"/>
<stop offset="0.257813" stop-color="#3192E4"/>
<stop offset="0.261719" stop-color="#3193E4"/>
<stop offset="0.265625" stop-color="#3193E4"/>
<stop offset="0.269531" stop-color="#3194E3"/>
<stop offset="0.273438" stop-color="#3194E3"/>
<stop offset="0.277344" stop-color="#3195E2"/>
<stop offset="0.28125" stop-color="#3195E2"/>
<stop offset="0.285156" stop-color="#3196E2"/>
<stop offset="0.289063" stop-color="#3196E1"/>
<stop offset="0.292969" stop-color="#3197E1"/>
<stop offset="0.296875" stop-color="#3197E0"/>
<stop offset="0.300781" stop-color="#3198E0"/>
<stop offset="0.304688" stop-color="#3199E0"/>
<stop offset="0.308594" stop-color="#3199DF"/>
<stop offset="0.3125" stop-color="#319ADF"/>
<stop offset="0.316406" stop-color="#319ADE"/>
<stop offset="0.320313" stop-color="#319BDE"/>
<stop offset="0.324219" stop-color="#319BDE"/>
<stop offset="0.328125" stop-color="#319CDD"/>
<stop offset="0.332031" stop-color="#319CDD"/>
<stop offset="0.335938" stop-color="#319DDC"/>
<stop offset="0.339844" stop-color="#319DDC"/>
<stop offset="0.34375" stop-color="#319EDC"/>
<stop offset="0.347656" stop-color="#319EDB"/>
<stop offset="0.351563" stop-color="#319FDB"/>
<stop offset="0.355469" stop-color="#309FDA"/>
<stop offset="0.359375" stop-color="#30A0DA"/>
<stop offset="0.363281" stop-color="#30A0DA"/>
<stop offset="0.367188" stop-color="#30A1D9"/>
<stop offset="0.371094" stop-color="#30A1D9"/>
<stop offset="0.375" stop-color="#30A2D8"/>
<stop offset="0.378906" stop-color="#30A2D8"/>
<stop offset="0.382813" stop-color="#30A3D8"/>
<stop offset="0.386719" stop-color="#30A3D7"/>
<stop offset="0.390625" stop-color="#30A4D7"/>
<stop offset="0.394531" stop-color="#30A4D6"/>
<stop offset="0.398438" stop-color="#30A5D6"/>
<stop offset="0.402344" stop-color="#30A5D6"/>
<stop offset="0.40625" stop-color="#30A6D5"/>
<stop offset="0.410156" stop-color="#30A7D5"/>
<stop offset="0.414063" stop-color="#30A7D4"/>
<stop offset="0.417969" stop-color="#30A8D4"/>
<stop offset="0.421875" stop-color="#30A8D4"/>
<stop offset="0.425781" stop-color="#30A9D3"/>
<stop offset="0.429688" stop-color="#30A9D3"/>
<stop offset="0.433594" stop-color="#30AAD2"/>
<stop offset="0.4375" stop-color="#30AAD2"/>
<stop offset="0.441406" stop-color="#30ABD2"/>
<stop offset="0.445312" stop-color="#30ABD1"/>
<stop offset="0.449219" stop-color="#30ACD1"/>
<stop offset="0.453125" stop-color="#30ACD0"/>
<stop offset="0.457031" stop-color="#2FADD0"/>
<stop offset="0.460938" stop-color="#2FADD0"/>
<stop offset="0.464844" stop-color="#2FAECF"/>
<stop offset="0.46875" stop-color="#2FAECF"/>
<stop offset="0.472656" stop-color="#2FAFCE"/>
<stop offset="0.476562" stop-color="#2FAFCE"/>
<stop offset="0.480469" stop-color="#2FB0CD"/>
<stop offset="0.484375" stop-color="#2FB0CD"/>
<stop offset="0.488281" stop-color="#2FB1CD"/>
<stop offset="0.492188" stop-color="#2FB1CC"/>
<stop offset="0.496094" stop-color="#2FB2CC"/>
<stop offset="0.5" stop-color="#2FB2CB"/>
<stop offset="0.503906" stop-color="#2FB3CB"/>
<stop offset="0.507812" stop-color="#2FB4CB"/>
<stop offset="0.511719" stop-color="#2FB4CA"/>
<stop offset="0.515625" stop-color="#2FB5CA"/>
<stop offset="0.519531" stop-color="#2FB5C9"/>
<stop offset="0.523438" stop-color="#2FB6C9"/>
<stop offset="0.527344" stop-color="#2FB6C9"/>
<stop offset="0.53125" stop-color="#2FB7C8"/>
<stop offset="0.535156" stop-color="#2FB7C8"/>
<stop offset="0.539062" stop-color="#2FB8C7"/>
<stop offset="0.542969" stop-color="#2FB8C7"/>
<stop offset="0.546875" stop-color="#2FB9C7"/>
<stop offset="0.550781" stop-color="#2FB9C6"/>
<stop offset="0.554688" stop-color="#2FBAC6"/>
<stop offset="0.558594" stop-color="#2EBAC5"/>
<stop offset="0.5625" stop-color="#2EBBC5"/>
<stop offset="0.566406" stop-color="#2EBBC5"/>
<stop offset="0.570312" stop-color="#2EBCC4"/>
<stop offset="0.574219" stop-color="#2EBCC4"/>
<stop offset="0.578125" stop-color="#2EBDC3"/>
<stop offset="0.582031" stop-color="#2EBDC3"/>
<stop offset="0.585938" stop-color="#2EBEC3"/>
<stop offset="0.589844" stop-color="#2EBEC2"/>
<stop offset="0.59375" stop-color="#2EBFC2"/>
<stop offset="0.597656" stop-color="#2EBFC1"/>
<stop offset="0.601562" stop-color="#2EC0C1"/>
<stop offset="0.605469" stop-color="#2EC1C1"/>
<stop offset="0.609375" stop-color="#2EC1C0"/>
<stop offset="0.613281" stop-color="#2EC2C0"/>
<stop offset="0.617188" stop-color="#2EC2BF"/>
<stop offset="0.621094" stop-color="#2EC3BF"/>
<stop offset="0.625" stop-color="#2EC3BF"/>
<stop offset="0.628906" stop-color="#2EC4BE"/>
<stop offset="0.632812" stop-color="#2EC4BE"/>
<stop offset="0.636719" stop-color="#2EC5BD"/>
<stop offset="0.640625" stop-color="#2EC5BD"/>
<stop offset="0.644531" stop-color="#2EC6BD"/>
<stop offset="0.648438" stop-color="#2EC6BC"/>
<stop offset="0.652344" stop-color="#2EC7BC"/>
<stop offset="0.65625" stop-color="#2DC7BB"/>
<stop offset="0.660156" stop-color="#2DC8BB"/>
<stop offset="0.664062" stop-color="#2DC8BB"/>
<stop offset="0.667969" stop-color="#2DC9BA"/>
<stop offset="0.671875" stop-color="#2DC9BA"/>
<stop offset="0.675781" stop-color="#2DCAB9"/>
<stop offset="0.679688" stop-color="#2DCAB9"/>
<stop offset="0.683594" stop-color="#2DCBB9"/>
<stop offset="0.6875" stop-color="#2DCBB8"/>
<stop offset="0.691406" stop-color="#2DCCB8"/>
<stop offset="0.695312" stop-color="#2DCCB7"/>
<stop offset="0.699219" stop-color="#2DCDB7"/>
<stop offset="0.703125" stop-color="#2DCEB7"/>
<stop offset="0.707031" stop-color="#2DCEB6"/>
<stop offset="0.710938" stop-color="#2DCFB6"/>
<stop offset="0.714844" stop-color="#2DCFB5"/>
<stop offset="0.71875" stop-color="#2DD0B5"/>
<stop offset="0.722656" stop-color="#2DD0B5"/>
<stop offset="0.726562" stop-color="#2DD1B4"/>
<stop offset="0.730469" stop-color="#2DD1B4"/>
<stop offset="0.734375" stop-color="#2DD2B3"/>
<stop offset="0.738281" stop-color="#2DD2B3"/>
<stop offset="0.742188" stop-color="#2DD3B3"/>
<stop offset="0.746094" stop-color="#2DD3B2"/>
<stop offset="0.75" stop-color="#2DD4B2"/>
<stop offset="0.753906" stop-color="#2DD4B1"/>
<stop offset="0.757812" stop-color="#2CD5B1"/>
<stop offset="0.761719" stop-color="#2CD5B1"/>
<stop offset="0.765625" stop-color="#2CD6B0"/>
<stop offset="0.769531" stop-color="#2CD6B0"/>
<stop offset="0.773438" stop-color="#2CD7AF"/>
<stop offset="0.777344" stop-color="#2CD7AF"/>
<stop offset="0.78125" stop-color="#2CD8AF"/>
<stop offset="0.785156" stop-color="#2CD8AE"/>
<stop offset="0.789062" stop-color="#2CD9AE"/>
<stop offset="0.792969" stop-color="#2CD9AD"/>
<stop offset="0.796875" stop-color="#2CDAAD"/>
<stop offset="0.800781" stop-color="#2CDBAD"/>
<stop offset="0.804688" stop-color="#2CDBAC"/>
<stop offset="0.808594" stop-color="#2CDCAC"/>
<stop offset="0.8125" stop-color="#2CDCAB"/>
<stop offset="0.816406" stop-color="#2CDDAB"/>
<stop offset="0.820312" stop-color="#2CDDAA"/>
<stop offset="0.824219" stop-color="#2CDEAA"/>
<stop offset="0.828125" stop-color="#2CDEAA"/>
<stop offset="0.832031" stop-color="#2CDFA9"/>
<stop offset="0.835937" stop-color="#2CDFA9"/>
<stop offset="0.839844" stop-color="#2CE0A8"/>
<stop offset="0.84375" stop-color="#2CE0A8"/>
<stop offset="0.847656" stop-color="#2CE1A8"/>
<stop offset="0.851562" stop-color="#2CE1A7"/>
<stop offset="0.855469" stop-color="#2CE2A7"/>
<stop offset="0.859375" stop-color="#2BE2A6"/>
<stop offset="0.863281" stop-color="#2BE3A6"/>
<stop offset="0.867187" stop-color="#2BE3A6"/>
<stop offset="0.871094" stop-color="#2BE4A5"/>
<stop offset="0.875" stop-color="#2BE4A5"/>
<stop offset="0.878906" stop-color="#2BE5A4"/>
<stop offset="0.882812" stop-color="#2BE5A4"/>
<stop offset="0.886719" stop-color="#2BE6A4"/>
<stop offset="0.890625" stop-color="#2BE6A3"/>
<stop offset="0.894531" stop-color="#2BE7A3"/>
<stop offset="0.898437" stop-color="#2BE8A2"/>
<stop offset="0.902344" stop-color="#2BE8A2"/>
<stop offset="0.90625" stop-color="#2BE9A2"/>
<stop offset="0.910156" stop-color="#2BE9A1"/>
<stop offset="0.914062" stop-color="#2BEAA1"/>
<stop offset="0.917969" stop-color="#2BEAA0"/>
<stop offset="0.921875" stop-color="#2BEBA0"/>
<stop offset="0.925781" stop-color="#2BEBA0"/>
<stop offset="0.929687" stop-color="#2BEC9F"/>
<stop offset="0.933594" stop-color="#2BEC9F"/>
<stop offset="0.9375" stop-color="#2BED9E"/>
<stop offset="0.941406" stop-color="#2BED9E"/>
<stop offset="0.945312" stop-color="#2BEE9E"/>
<stop offset="0.949219" stop-color="#2BEE9D"/>
<stop offset="0.953125" stop-color="#2BEF9D"/>
<stop offset="0.957031" stop-color="#2BEF9C"/>
<stop offset="0.960937" stop-color="#2AF09C"/>
<stop offset="0.964844" stop-color="#2AF09C"/>
<stop offset="0.96875" stop-color="#2AF19B"/>
<stop offset="0.972656" stop-color="#2AF19B"/>
<stop offset="0.976562" stop-color="#2AF29A"/>
<stop offset="0.980469" stop-color="#2AF29A"/>
<stop offset="0.984375" stop-color="#2AF39A"/>
<stop offset="0.988281" stop-color="#2AF399"/>
<stop offset="0.992187" stop-color="#2AF499"/>
<stop offset="0.996094" stop-color="#2AF598"/>
<stop offset="1" stop-color="#2AF598"/>
</linearGradient>
</defs>
</svg>
